<svg xmlns="http://www.w3.org/2000/svg" xmlns:xlink="http://www.w3.org/1999/xlink" contentStyleType="text/css" data-diagram-type="CLASS" height="116px" preserveAspectRatio="none" style="width:416px;height:116px;background:#FFFFFF;" version="1.1" viewBox="0 0 416 116" width="416px" zoomAndPan="magnify"><?plantuml 1.2026.6?><defs/><g><!--class FilterController--><g class="entity" data-qualified-name="FilterController" data-source-line="2" id="ent0001"><rect fill="#F1F1F1" height="96.8906" rx="2.5" ry="2.5" style="stroke:#181818;stroke-width:0.5;" width="396.959" x="7" y="7"/><ellipse cx="148.7979" cy="23" fill="#ADD1B2" rx="11" ry="11" style="stroke:#181818;stroke-width:1;"/><path d="M151.7666,28.6406 Q151.1885,28.9375 150.5479,29.0781 Q149.9072,29.2344 149.2041,29.2344 Q146.7041,29.2344 145.376,27.5938 Q144.0635,25.9375 144.0635,22.8125 Q144.0635,19.6875 145.376,18.0313 Q146.7041,16.375 149.2041,16.375 Q149.9072,16.375 150.5479,16.5313 Q151.2041,16.6875 151.7666,16.9844 L151.7666,19.7031 Q151.1416,19.125 150.5479,18.8594 Q149.9541,18.5781 149.3291,18.5781 Q147.9854,18.5781 147.2979,19.6563 Q146.6104,20.7188 146.6104,22.8125 Q146.6104,24.9063 147.2979,25.9844 Q147.9854,27.0469 149.3291,27.0469 Q149.9541,27.0469 150.5479,26.7813 Q151.1416,26.5 151.7666,25.9219 L151.7666,28.6406 Z " fill="#000000"/><text fill="#000000" font-family="sans-serif" font-size="14" lengthAdjust="spacing" textLength="104.8633" x="169.2979" y="27.8467">FilterController</text><line style="stroke:#181818;stroke-width:0.5;" x1="8" x2="402.959" y1="39" y2="39"/><g data-visibility-modifier="PRIVATE_FIELD"><rect fill="none" height="6" style="stroke:#C82930;stroke-width:1;" width="6" x="15" y="49.6484"/></g><text fill="#000000" font-family="sans-serif" font-size="14" lengthAdjust="spacing" textLength="185.3564" x="27" y="55.9951">filterService : FilterService</text><line style="stroke:#181818;stroke-width:0.5;" x1="8" x2="402.959" y1="63.2969" y2="63.2969"/><g data-visibility-modifier="PUBLIC_METHOD"><ellipse cx="18" cy="76.9453" fill="#84BE84" rx="3" ry="3" style="stroke:#038048;stroke-width:1;"/></g><text fill="#000000" font-family="sans-serif" font-size="14" lengthAdjust="spacing" textLength="333.1289" x="27" y="80.292">getAllSprints ( teamId : Long ) : ResponseEntity</text><g data-visibility-modifier="PUBLIC_METHOD"><ellipse cx="18" cy="93.2422" fill="#84BE84" rx="3" ry="3" style="stroke:#038048;stroke-width:1;"/></g><text fill="#000000" font-family="sans-serif" font-size="14" lengthAdjust="spacing" textLength="370.959" x="27" y="96.5889">getTeamMembers ( teamId : Long ) : ResponseEntity</text></g><?plantuml-src ZOin2i9G44HhSuej8-85x4GK16sC5uZ997xOlp_iBeA4t3sVaChAgMQOzngkpUWIsA6d9Aw96KfZiHcx06udsdVBMK4_eG4TLdZTcOlmTyhWheSVcQj1WxXHIOuwNjjit9BqjCtb0HkI6CxYmRy_xZFZTyGNz2zvAfRC?></g></svg>