<svg xmlns="http://www.w3.org/2000/svg" xmlns:xlink="http://www.w3.org/1999/xlink" contentStyleType="text/css" data-diagram-type="CLASS" height="601px" preserveAspectRatio="none" style="width:1003px;height:601px;background:#FFFFFF;" version="1.1" viewBox="0 0 1003 601" width="1003px" zoomAndPan="magnify"><?plantuml 1.2026.6?><defs/><g><!--class Builder--><g class="entity" data-qualified-name="Builder" data-source-line="2" id="ent0001"><rect fill="#F1F1F1" height="390.2344" rx="2.5" ry="2.5" style="stroke:#181818;stroke-width:0.5;" width="429.5049" x="9" y="7"/><ellipse cx="194.7461" cy="23" fill="#ADD1B2" rx="11" ry="11" style="stroke:#181818;stroke-width:1;"/><path d="M197.7148,28.6406 Q197.1367,28.9375 196.4961,29.0781 Q195.8555,29.2344 195.1523,29.2344 Q192.6523,29.2344 191.3242,27.5938 Q190.0117,25.9375 190.0117,22.8125 Q190.0117,19.6875 191.3242,18.0313 Q192.6523,16.375 195.1523,16.375 Q195.8555,16.375 196.4961,16.5313 Q197.1523,16.6875 197.7148,16.9844 L197.7148,19.7031 Q197.0898,19.125 196.4961,18.8594 Q195.9023,18.5781 195.2773,18.5781 Q193.9336,18.5781 193.2461,19.6563 Q192.5586,20.7188 192.5586,22.8125 Q192.5586,24.9063 193.2461,25.9844 Q193.9336,27.0469 195.2773,27.0469 Q195.9023,27.0469 196.4961,26.7813 Q197.0898,26.5 197.7148,25.9219 L197.7148,28.6406 Z " fill="#000000"/><text fill="#000000" font-family="sans-serif" font-size="14" lengthAdjust="spacing" textLength="49.5127" x="215.2461" y="27.8467">Builder</text><line style="stroke:#181818;stroke-width:0.5;" x1="10" x2="437.5049" y1="39" y2="39"/><g data-visibility-modifier="PACKAGE_PRIVATE_FIELD"><polygon fill="none" points="20,48.6484,16,54.6484,24,54.6484" style="stroke:#1963A0;stroke-width:1;stroke-linejoin:miter;stroke-miterlimit:10;"/></g><text fill="#000000" font-family="sans-serif" font-size="14" lengthAdjust="spacing" textLength="94.0078" x="29" y="55.9951">email : String</text><g data-visibility-modifier="PACKAGE_PRIVATE_FIELD"><polygon fill="none" points="20,64.9453,16,70.9453,24,70.9453" style="stroke:#1963A0;stroke-width:1;stroke-linejoin:miter;stroke-miterlimit:10;"/></g><text fill="#000000" font-family="sans-serif" font-size="14" lengthAdjust="spacing" textLength="44.6455" x="29" y="72.292">id : int</text><g data-visibility-modifier="PACKAGE_PRIVATE_FIELD"><polygon fill="none" points="20,81.2422,16,87.2422,24,87.2422" style="stroke:#1963A0;stroke-width:1;stroke-linejoin:miter;stroke-miterlimit:10;"/></g><text fill="#000000" font-family="sans-serif" font-size="14" lengthAdjust="spacing" textLength="82.2227" x="29" y="88.5889">role : String</text><g data-visibility-modifier="PACKAGE_PRIVATE_FIELD"><polygon fill="none" points="20,97.5391,16,103.5391,24,103.5391" style="stroke:#1963A0;stroke-width:1;stroke-linejoin:miter;stroke-miterlimit:10;"/></g><text fill="#000000" font-family="sans-serif" font-size="14" lengthAdjust="spacing" textLength="81.2041" x="29" y="104.8857">teamId : int</text><g data-visibility-modifier="PACKAGE_PRIVATE_FIELD"><polygon fill="none" points="20,113.8359,16,119.8359,24,119.8359" style="stroke:#1963A0;stroke-width:1;stroke-linejoin:miter;stroke-miterlimit:10;"/></g><text fill="#000000" font-family="sans-serif" font-size="14" lengthAdjust="spacing" textLength="125.6377" x="29" y="121.1826">username : String</text><g data-visibility-modifier="PRIVATE_FIELD"><rect fill="none" height="6" style="stroke:#C82930;stroke-width:1;" width="6" x="17" y="131.1328"/></g><text fill="#000000" font-family="sans-serif" font-size="14" lengthAdjust="spacing" textLength="106.9277" x="29" y="137.4795">assigneeId : int</text><g data-visibility-modifier="PRIVATE_FIELD"><rect fill="none" height="6" style="stroke:#C82930;stroke-width:1;" width="6" x="17" y="147.4297"/></g><text fill="#000000" font-family="sans-serif" font-size="14" lengthAdjust="spacing" textLength="136.7188" x="29" y="153.7764">attachment : String</text><g data-visibility-modifier="PRIVATE_FIELD"><rect fill="none" height="6" style="stroke:#C82930;stroke-width:1;" width="6" x="17" y="163.7266"/></g><text fill="#000000" font-family="sans-serif" font-size="14" lengthAdjust="spacing" textLength="133.2393" x="29" y="170.0732">description : String</text><g data-visibility-modifier="PRIVATE_FIELD"><rect fill="none" height="6" style="stroke:#C82930;stroke-width:1;" width="6" x="17" y="180.0234"/></g><text fill="#000000" font-family="sans-serif" font-size="14" lengthAdjust="spacing" textLength="204.5928" x="29" y="186.3701">estimatedHours : BigDecimal</text><g data-visibility-modifier="PRIVATE_FIELD"><rect fill="none" height="6" style="stroke:#C82930;stroke-width:1;" width="6" x="17" y="196.3203"/></g><text fill="#000000" font-family="sans-serif" font-size="14" lengthAdjust="spacing" textLength="95.1016" x="29" y="202.667">name : String</text><g data-visibility-modifier="PRIVATE_FIELD"><rect fill="none" height="6" style="stroke:#C82930;stroke-width:1;" width="6" x="17" y="212.6172"/></g><text fill="#000000" font-family="sans-serif" font-size="14" lengthAdjust="spacing" textLength="82.3867" x="29" y="218.9639">priority : int</text><g data-visibility-modifier="PRIVATE_FIELD"><rect fill="none" height="6" style="stroke:#C82930;stroke-width:1;" width="6" x="17" y="228.9141"/></g><text fill="#000000" font-family="sans-serif" font-size="14" lengthAdjust="spacing" textLength="85.0732" x="29" y="235.2607">sprintId : int</text><line style="stroke:#181818;stroke-width:0.5;" x1="10" x2="437.5049" y1="242.5625" y2="242.5625"/><g data-visibility-modifier="PUBLIC_METHOD"><ellipse cx="20" cy="256.2109" fill="#84BE84" rx="3" ry="3" style="stroke:#038048;stroke-width:1;"/></g><text fill="#000000" font-family="sans-serif" font-size="14" lengthAdjust="spacing" textLength="95.3271" x="29" y="259.5576">build () : User</text><g data-visibility-modifier="PUBLIC_METHOD"><ellipse cx="20" cy="272.5078" fill="#84BE84" rx="3" ry="3" style="stroke:#038048;stroke-width:1;"/></g><text fill="#000000" font-family="sans-serif" font-size="14" lengthAdjust="spacing" textLength="269.3906" x="29" y="275.8545">assigneeId ( assigneeId : int ) : Builder</text><g data-visibility-modifier="PUBLIC_METHOD"><ellipse cx="20" cy="288.8047" fill="#84BE84" rx="3" ry="3" style="stroke:#038048;stroke-width:1;"/></g><text fill="#000000" font-family="sans-serif" font-size="14" lengthAdjust="spacing" textLength="305.4434" x="29" y="292.1514">attachment ( attachment : String ) : Builder</text><g data-visibility-modifier="PUBLIC_METHOD"><ellipse cx="20" cy="305.1016" fill="#84BE84" rx="3" ry="3" style="stroke:#038048;stroke-width:1;"/></g><text fill="#000000" font-family="sans-serif" font-size="14" lengthAdjust="spacing" textLength="142.7754" x="29" y="308.4482">build () : CreateTask</text><g data-visibility-modifier="PUBLIC_METHOD"><ellipse cx="20" cy="321.3984" fill="#84BE84" rx="3" ry="3" style="stroke:#038048;stroke-width:1;"/></g><text fill="#000000" font-family="sans-serif" font-size="14" lengthAdjust="spacing" textLength="298.4844" x="29" y="324.7451">description ( description : String ) : Builder</text><g data-visibility-modifier="PUBLIC_METHOD"><ellipse cx="20" cy="337.6953" fill="#84BE84" rx="3" ry="3" style="stroke:#038048;stroke-width:1;"/></g><text fill="#000000" font-family="sans-serif" font-size="14" lengthAdjust="spacing" textLength="403.5049" x="29" y="341.042">estimatedHours ( estimatedHours : BigDecimal ) : Builder</text><g data-visibility-modifier="PUBLIC_METHOD"><ellipse cx="20" cy="353.9922" fill="#84BE84" rx="3" ry="3" style="stroke:#038048;stroke-width:1;"/></g><text fill="#000000" font-family="sans-serif" font-size="14" lengthAdjust="spacing" textLength="222.209" x="29" y="357.3389">name ( name : String ) : Builder</text><g data-visibility-modifier="PUBLIC_METHOD"><ellipse cx="20" cy="370.2891" fill="#84BE84" rx="3" ry="3" style="stroke:#038048;stroke-width:1;"/></g><text fill="#000000" font-family="sans-serif" font-size="14" lengthAdjust="spacing" textLength="220.3086" x="29" y="373.6357">priority ( priority : int ) : Builder</text><g data-visibility-modifier="PUBLIC_METHOD"><ellipse cx="20" cy="386.5859" fill="#84BE84" rx="3" ry="3" style="stroke:#038048;stroke-width:1;"/></g><text fill="#000000" font-family="sans-serif" font-size="14" lengthAdjust="spacing" textLength="225.6816" x="29" y="389.9326">sprintId ( sprintId : int ) : Builder</text></g><!--class CreateTask--><g class="entity" data-qualified-name="CreateTask" data-source-line="31" id="ent0002"><rect fill="#F1F1F1" height="178.375" rx="2.5" ry="2.5" style="stroke:#181818;stroke-width:0.5;" width="230.5928" x="473.46" y="112.93"/><ellipse cx="544.8272" cy="128.93" fill="#ADD1B2" rx="11" ry="11" style="stroke:#181818;stroke-width:1;"/><path d="M547.7959,134.5706 Q547.2178,134.8675 546.5772,135.0081 Q545.9366,135.1644 545.2334,135.1644 Q542.7334,135.1644 541.4053,133.5238 Q540.0928,131.8675 540.0928,128.7425 Q540.0928,125.6175 541.4053,123.9613 Q542.7334,122.305 545.2334,122.305 Q545.9366,122.305 546.5772,122.4613 Q547.2334,122.6175 547.7959,122.9144 L547.7959,125.6331 Q547.1709,125.055 546.5772,124.7894 Q545.9834,124.5081 545.3584,124.5081 Q544.0147,124.5081 543.3272,125.5863 Q542.6397,126.6488 542.6397,128.7425 Q542.6397,130.8363 543.3272,131.9144 Q544.0147,132.9769 545.3584,132.9769 Q545.9834,132.9769 546.5772,132.7113 Q547.1709,132.43 547.7959,131.8519 L547.7959,134.5706 Z " fill="#000000"/><text fill="#000000" font-family="sans-serif" font-size="14" lengthAdjust="spacing" textLength="79.3584" x="565.3272" y="133.7767">CreateTask</text><line style="stroke:#181818;stroke-width:0.5;" x1="474.46" x2="703.0528" y1="144.93" y2="144.93"/><g data-visibility-modifier="PUBLIC_FIELD"><ellipse cx="484.46" cy="158.5784" fill="none" rx="3" ry="3" style="stroke:#038048;stroke-width:1;"/></g><text fill="#000000" font-family="sans-serif" font-size="14" lengthAdjust="spacing" textLength="106.9277" x="493.46" y="161.9251">assigneeId : int</text><g data-visibility-modifier="PUBLIC_FIELD"><ellipse cx="484.46" cy="174.8753" fill="none" rx="3" ry="3" style="stroke:#038048;stroke-width:1;"/></g><text fill="#000000" font-family="sans-serif" font-size="14" lengthAdjust="spacing" textLength="136.7188" x="493.46" y="178.222">attachment : String</text><g data-visibility-modifier="PUBLIC_FIELD"><ellipse cx="484.46" cy="191.1722" fill="none" rx="3" ry="3" style="stroke:#038048;stroke-width:1;"/></g><text fill="#000000" font-family="sans-serif" font-size="14" lengthAdjust="spacing" textLength="133.2393" x="493.46" y="194.5189">description : String</text><g data-visibility-modifier="PUBLIC_FIELD"><ellipse cx="484.46" cy="207.4691" fill="none" rx="3" ry="3" style="stroke:#038048;stroke-width:1;"/></g><text fill="#000000" font-family="sans-serif" font-size="14" lengthAdjust="spacing" textLength="204.5928" x="493.46" y="210.8157">estimatedHours : BigDecimal</text><g data-visibility-modifier="PUBLIC_FIELD"><ellipse cx="484.46" cy="223.7659" fill="none" rx="3" ry="3" style="stroke:#038048;stroke-width:1;"/></g><text fill="#000000" font-family="sans-serif" font-size="14" lengthAdjust="spacing" textLength="95.1016" x="493.46" y="227.1126">name : String</text><g data-visibility-modifier="PUBLIC_FIELD"><ellipse cx="484.46" cy="240.0628" fill="none" rx="3" ry="3" style="stroke:#038048;stroke-width:1;"/></g><text fill="#000000" font-family="sans-serif" font-size="14" lengthAdjust="spacing" textLength="82.3867" x="493.46" y="243.4095">priority : int</text><g data-visibility-modifier="PUBLIC_FIELD"><ellipse cx="484.46" cy="256.3597" fill="none" rx="3" ry="3" style="stroke:#038048;stroke-width:1;"/></g><text fill="#000000" font-family="sans-serif" font-size="14" lengthAdjust="spacing" textLength="85.0732" x="493.46" y="259.7064">sprintId : int</text><line style="stroke:#181818;stroke-width:0.5;" x1="474.46" x2="703.0528" y1="267.0081" y2="267.0081"/><g data-visibility-modifier="PUBLIC_METHOD"><ellipse cx="484.46" cy="280.6566" fill="#84BE84" rx="3" ry="3" style="stroke:#038048;stroke-width:1;"/></g><text fill="#000000" font-family="sans-serif" font-size="14" lengthAdjust="spacing" text-decoration="underline" textLength="127.2988" x="493.46" y="284.0032">builder () : Builder</text></g><!--class Task--><g class="entity" data-qualified-name="Task" data-source-line="43" id="ent0003"><rect fill="#F1F1F1" height="308.75" rx="2.5" ry="2.5" style="stroke:#181818;stroke-width:0.5;" width="250.3008" x="738.6" y="47.74"/><ellipse cx="843.2343" cy="63.74" fill="#ADD1B2" rx="11" ry="11" style="stroke:#181818;stroke-width:1;"/><path d="M846.203,69.3806 Q845.6249,69.6775 844.9843,69.8181 Q844.3437,69.9744 843.6405,69.9744 Q841.1405,69.9744 839.8124,68.3338 Q838.4999,66.6775 838.4999,63.5525 Q838.4999,60.4275 839.8124,58.7713 Q841.1405,57.115 843.6405,57.115 Q844.3437,57.115 844.9843,57.2713 Q845.6405,57.4275 846.203,57.7244 L846.203,60.4431 Q845.578,59.865 844.9843,59.5994 Q844.3905,59.3181 843.7655,59.3181 Q842.4218,59.3181 841.7343,60.3963 Q841.0468,61.4588 841.0468,63.5525 Q841.0468,65.6463 841.7343,66.7244 Q842.4218,67.7869 843.7655,67.7869 Q844.3905,67.7869 844.9843,67.5213 Q845.578,67.24 846.203,66.6619 L846.203,69.3806 Z " fill="#000000"/><text fill="#000000" font-family="sans-serif" font-size="14" lengthAdjust="spacing" textLength="32.5322" x="863.7343" y="68.5867">Task</text><line style="stroke:#181818;stroke-width:0.5;" x1="739.6" x2="987.9008" y1="79.74" y2="79.74"/><g data-visibility-modifier="PUBLIC_FIELD"><ellipse cx="749.6" cy="93.3884" fill="none" rx="3" ry="3" style="stroke:#038048;stroke-width:1;"/></g><text fill="#000000" font-family="sans-serif" font-size="14" lengthAdjust="spacing" textLength="46.7783" x="758.6" y="96.7351">ID : int</text><g data-visibility-modifier="PUBLIC_FIELD"><ellipse cx="749.6" cy="109.6853" fill="none" rx="3" ry="3" style="stroke:#038048;stroke-width:1;"/></g><text fill="#000000" font-family="sans-serif" font-size="14" lengthAdjust="spacing" textLength="122.1309" x="758.6" y="113.032">cost : BigDecimal</text><g data-visibility-modifier="PUBLIC_FIELD"><ellipse cx="749.6" cy="125.9822" fill="none" rx="3" ry="3" style="stroke:#038048;stroke-width:1;"/></g><text fill="#000000" font-family="sans-serif" font-size="14" lengthAdjust="spacing" textLength="192.7461" x="758.6" y="129.3289">createdAt : OffsetDateTime</text><g data-visibility-modifier="PUBLIC_FIELD"><ellipse cx="749.6" cy="142.2791" fill="none" rx="3" ry="3" style="stroke:#038048;stroke-width:1;"/></g><text fill="#000000" font-family="sans-serif" font-size="14" lengthAdjust="spacing" textLength="133.2393" x="758.6" y="145.6257">description : String</text><g data-visibility-modifier="PUBLIC_FIELD"><ellipse cx="749.6" cy="158.5759" fill="none" rx="3" ry="3" style="stroke:#038048;stroke-width:1;"/></g><text fill="#000000" font-family="sans-serif" font-size="14" lengthAdjust="spacing" textLength="121.7207" x="758.6" y="161.9226">linkToFile : String</text><g data-visibility-modifier="PUBLIC_FIELD"><ellipse cx="749.6" cy="174.8728" fill="none" rx="3" ry="3" style="stroke:#038048;stroke-width:1;"/></g><text fill="#000000" font-family="sans-serif" font-size="14" lengthAdjust="spacing" textLength="95.1016" x="758.6" y="178.2195">name : String</text><g data-visibility-modifier="PUBLIC_FIELD"><ellipse cx="749.6" cy="191.1697" fill="none" rx="3" ry="3" style="stroke:#038048;stroke-width:1;"/></g><text fill="#000000" font-family="sans-serif" font-size="14" lengthAdjust="spacing" textLength="97.2959" x="758.6" y="194.5164">priorityID : int</text><g data-visibility-modifier="PUBLIC_FIELD"><ellipse cx="749.6" cy="207.4666" fill="none" rx="3" ry="3" style="stroke:#038048;stroke-width:1;"/></g><text fill="#000000" font-family="sans-serif" font-size="14" lengthAdjust="spacing" textLength="173.2568" x="758.6" y="210.8132">spentHours : BigDecimal</text><g data-visibility-modifier="PUBLIC_FIELD"><ellipse cx="749.6" cy="223.7634" fill="none" rx="3" ry="3" style="stroke:#038048;stroke-width:1;"/></g><text fill="#000000" font-family="sans-serif" font-size="14" lengthAdjust="spacing" textLength="224.3008" x="758.6" y="227.1101">sprintEndDate : OffsetDateTime</text><g data-visibility-modifier="PUBLIC_FIELD"><ellipse cx="749.6" cy="240.0603" fill="none" rx="3" ry="3" style="stroke:#038048;stroke-width:1;"/></g><text fill="#000000" font-family="sans-serif" font-size="14" lengthAdjust="spacing" textLength="86.9668" x="758.6" y="243.407">sprintID : int</text><g data-visibility-modifier="PUBLIC_FIELD"><ellipse cx="749.6" cy="256.3572" fill="none" rx="3" ry="3" style="stroke:#038048;stroke-width:1;"/></g><text fill="#000000" font-family="sans-serif" font-size="14" lengthAdjust="spacing" textLength="128.2969" x="758.6" y="259.7039">sprintNumber : int</text><g data-visibility-modifier="PUBLIC_FIELD"><ellipse cx="749.6" cy="272.6541" fill="none" rx="3" ry="3" style="stroke:#038048;stroke-width:1;"/></g><text fill="#000000" font-family="sans-serif" font-size="14" lengthAdjust="spacing" textLength="82.2432" x="758.6" y="276.0007">stateID : int</text><g data-visibility-modifier="PUBLIC_FIELD"><ellipse cx="749.6" cy="288.9509" fill="none" rx="3" ry="3" style="stroke:#038048;stroke-width:1;"/></g><text fill="#000000" font-family="sans-serif" font-size="14" lengthAdjust="spacing" textLength="197.3262" x="758.6" y="292.2976">updatedAt : OffsetDateTime</text><g data-visibility-modifier="PUBLIC_FIELD"><ellipse cx="749.6" cy="305.2478" fill="none" rx="3" ry="3" style="stroke:#038048;stroke-width:1;"/></g><text fill="#000000" font-family="sans-serif" font-size="14" lengthAdjust="spacing" textLength="77.3145" x="758.6" y="308.5945">userID : int</text><g data-visibility-modifier="PUBLIC_FIELD"><ellipse cx="749.6" cy="321.5447" fill="none" rx="3" ry="3" style="stroke:#038048;stroke-width:1;"/></g><text fill="#000000" font-family="sans-serif" font-size="14" lengthAdjust="spacing" textLength="127.2373" x="758.6" y="324.8914">userName : String</text><g data-visibility-modifier="PUBLIC_FIELD"><ellipse cx="749.6" cy="337.8416" fill="none" rx="3" ry="3" style="stroke:#038048;stroke-width:1;"/></g><text fill="#000000" font-family="sans-serif" font-size="14" lengthAdjust="spacing" textLength="89.5576" x="758.6" y="341.1882">visibility : int</text><line style="stroke:#181818;stroke-width:0.5;" x1="739.6" x2="987.9008" y1="348.49" y2="348.49"/></g><!--class TaskRowMapper--><g class="entity" data-qualified-name="TaskRowMapper" data-source-line="63" id="ent0004"><rect fill="#F1F1F1" height="64.2969" rx="2.5" ry="2.5" style="stroke:#181818;stroke-width:0.5;" width="354.7881" x="46.36" y="489.83"/><ellipse cx="161.966" cy="505.83" fill="#ADD1B2" rx="11" ry="11" style="stroke:#181818;stroke-width:1;"/><path d="M164.9347,511.4706 Q164.3566,511.7675 163.716,511.9081 Q163.0753,512.0644 162.3722,512.0644 Q159.8722,512.0644 158.5441,510.4238 Q157.2316,508.7675 157.2316,505.6425 Q157.2316,502.5175 158.5441,500.8613 Q159.8722,499.205 162.3722,499.205 Q163.0753,499.205 163.716,499.3613 Q164.3722,499.5175 164.9347,499.8144 L164.9347,502.5331 Q164.3097,501.955 163.716,501.6894 Q163.1222,501.4081 162.4972,501.4081 Q161.1535,501.4081 160.466,502.4863 Q159.7785,503.5488 159.7785,505.6425 Q159.7785,507.7363 160.466,508.8144 Q161.1535,509.8769 162.4972,509.8769 Q163.1222,509.8769 163.716,509.6113 Q164.3097,509.33 164.9347,508.7519 L164.9347,511.4706 Z " fill="#000000"/><text fill="#000000" font-family="sans-serif" font-size="14" lengthAdjust="spacing" textLength="115.0762" x="182.466" y="510.6767">TaskRowMapper</text><line style="stroke:#181818;stroke-width:0.5;" x1="47.36" x2="400.1481" y1="521.83" y2="521.83"/><line style="stroke:#181818;stroke-width:0.5;" x1="47.36" x2="400.1481" y1="529.83" y2="529.83"/><g data-visibility-modifier="PUBLIC_METHOD"><ellipse cx="57.36" cy="543.4784" fill="#84BE84" rx="3" ry="3" style="stroke:#038048;stroke-width:1;"/></g><text fill="#000000" font-family="sans-serif" font-size="14" lengthAdjust="spacing" textLength="328.7881" x="66.36" y="546.8251">mapRow ( rs : ResultSet , rowNum : int ) : Task</text></g><!--class User--><g class="entity" data-qualified-name="User" data-source-line="68" id="ent0005"><rect fill="#F1F1F1" height="129.4844" rx="2.5" ry="2.5" style="stroke:#181818;stroke-width:0.5;" width="151.6377" x="435.93" y="457.24"/><ellipse cx="491.5438" cy="473.24" fill="#ADD1B2" rx="11" ry="11" style="stroke:#181818;stroke-width:1;"/><path d="M494.5125,478.8806 Q493.9344,479.1775 493.2938,479.3181 Q492.6531,479.4744 491.95,479.4744 Q489.45,479.4744 488.1219,477.8338 Q486.8094,476.1775 486.8094,473.0525 Q486.8094,469.9275 488.1219,468.2713 Q489.45,466.615 491.95,466.615 Q492.6531,466.615 493.2938,466.7713 Q493.95,466.9275 494.5125,467.2244 L494.5125,469.9431 Q493.8875,469.365 493.2938,469.0994 Q492.7,468.8181 492.075,468.8181 Q490.7313,468.8181 490.0438,469.8963 Q489.3563,470.9588 489.3563,473.0525 Q489.3563,475.1463 490.0438,476.2244 Q490.7313,477.2869 492.075,477.2869 Q492.7,477.2869 493.2938,477.0213 Q493.8875,476.74 494.5125,476.1619 L494.5125,478.8806 Z " fill="#000000"/><text fill="#000000" font-family="sans-serif" font-size="14" lengthAdjust="spacing" textLength="31.9102" x="512.0438" y="478.0867">User</text><line style="stroke:#181818;stroke-width:0.5;" x1="436.93" x2="586.5677" y1="489.24" y2="489.24"/><g data-visibility-modifier="PRIVATE_FIELD"><rect fill="none" height="6" style="stroke:#C82930;stroke-width:1;" width="6" x="443.93" y="499.8884"/></g><text fill="#000000" font-family="sans-serif" font-size="14" lengthAdjust="spacing" textLength="94.0078" x="455.93" y="506.2351">email : String</text><g data-visibility-modifier="PRIVATE_FIELD"><rect fill="none" height="6" style="stroke:#C82930;stroke-width:1;" width="6" x="443.93" y="516.1853"/></g><text fill="#000000" font-family="sans-serif" font-size="14" lengthAdjust="spacing" textLength="44.6455" x="455.93" y="522.532">id : int</text><g data-visibility-modifier="PRIVATE_FIELD"><rect fill="none" height="6" style="stroke:#C82930;stroke-width:1;" width="6" x="443.93" y="532.4822"/></g><text fill="#000000" font-family="sans-serif" font-size="14" lengthAdjust="spacing" textLength="82.2227" x="455.93" y="538.8289">role : String</text><g data-visibility-modifier="PRIVATE_FIELD"><rect fill="none" height="6" style="stroke:#C82930;stroke-width:1;" width="6" x="443.93" y="548.7791"/></g><text fill="#000000" font-family="sans-serif" font-size="14" lengthAdjust="spacing" textLength="81.2041" x="455.93" y="555.1257">teamId : int</text><g data-visibility-modifier="PRIVATE_FIELD"><rect fill="none" height="6" style="stroke:#C82930;stroke-width:1;" width="6" x="443.93" y="565.0759"/></g><text fill="#000000" font-family="sans-serif" font-size="14" lengthAdjust="spacing" textLength="125.6377" x="455.93" y="571.4226">username : String</text><line style="stroke:#181818;stroke-width:0.5;" x1="436.93" x2="586.5677" y1="578.7244" y2="578.7244"/></g><?plantuml-src ZPLBKiCm38RNv1HUXWcv03kWCB00PdWSm4tKei6FZAt0C1quEqefZLFRWIprSAJFlwL6IU_5UO-g1ISsnT5cXQ3QJ_45Mg8If-AH79fruC2MhMWeC3ch81LA8FLD7DvxS4RgIOe6Uh7ih9P3BQ8yPkSpnnMVHL4qkIfhjkFQ0CH_gIMHR5uq64gKLhVW6uSTeJKfDtX2BGdQQzixpn7dk5v0mpOLH1qsyMll75g7z17LvDbZA2XsttRGI2aEkn83ZLtxawInHKwA-ytb1Oml772RJzA_XW4XdLAaMEMEFW1NYXcIkJEsM4inePkBtQCknPHwBc5_1QMOtiOaOLJT22WKNfKNNZKhl6fUUDM_X5TbX5VbX5TbXISsdYHXywiAVbzb6aI4u6OH_QQndd8rDrkGxTaGSBzQUQ3501Or_9-EGlFwPAymEMx-f98es7TyJREeVyXTcdQeTgxq7U95XlrThvSCDt8oVKWazLtxDwrXaAPosNoNOV667fUeHerCB_Z1lj_AhjjDsVsZqR9Z3p-PBQS7yBsYHo1n8fnzvyw25xGT9UEXmmoVJEpSNgdZlL9dzagTtYjrl5U6ElZx1W00?></g></svg>