<svg xmlns="http://www.w3.org/2000/svg" xmlns:xlink="http://www.w3.org/1999/xlink" contentStyleType="text/css" data-diagram-type="CLASS" height="312px" preserveAspectRatio="none" style="width:591px;height:312px;background:#FFFFFF;" version="1.1" viewBox="0 0 591 312" width="591px" zoomAndPan="magnify"><?plantuml 1.2026.6?><defs/><g><!--class StadisticsController--><g class="entity" data-qualified-name="StadisticsController" data-source-line="2" id="ent0001"><rect fill="#F1F1F1" height="292.4531" rx="2.5" ry="2.5" style="stroke:#181818;stroke-width:0.5;" width="571.4736" x="7" y="7"/><ellipse cx="220.2026" cy="23" fill="#ADD1B2" rx="11" ry="11" style="stroke:#181818;stroke-width:1;"/><path d="M223.1714,28.6406 Q222.5933,28.9375 221.9526,29.0781 Q221.312,29.2344 220.6089,29.2344 Q218.1089,29.2344 216.7808,27.5938 Q215.4683,25.9375 215.4683,22.8125 Q215.4683,19.6875 216.7808,18.0313 Q218.1089,16.375 220.6089,16.375 Q221.312,16.375 221.9526,16.5313 Q222.6089,16.6875 223.1714,16.9844 L223.1714,19.7031 Q222.5464,19.125 221.9526,18.8594 Q221.3589,18.5781 220.7339,18.5781 Q219.3901,18.5781 218.7026,19.6563 Q218.0151,20.7188 218.0151,22.8125 Q218.0151,24.9063 218.7026,25.9844 Q219.3901,27.0469 220.7339,27.0469 Q221.3589,27.0469 221.9526,26.7813 Q222.5464,26.5 223.1714,25.9219 L223.1714,28.6406 Z " fill="#000000"/><text fill="#000000" font-family="sans-serif" font-size="14" lengthAdjust="spacing" textLength="136.5684" x="240.7026" y="27.8467">StadisticsController</text><line style="stroke:#181818;stroke-width:0.5;" x1="8" x2="577.4736" y1="39" y2="39"/><g data-visibility-modifier="PRIVATE_FIELD"><rect fill="none" height="6" style="stroke:#C82930;stroke-width:1;" width="6" x="15" y="49.6484"/></g><text fill="#000000" font-family="sans-serif" font-size="14" lengthAdjust="spacing" textLength="250.2979" x="27" y="55.9951">stadisticsService : StadisticsService</text><line style="stroke:#181818;stroke-width:0.5;" x1="8" x2="577.4736" y1="63.2969" y2="63.2969"/><g data-visibility-modifier="PUBLIC_METHOD"><ellipse cx="18" cy="76.9453" fill="#84BE84" rx="3" ry="3" style="stroke:#038048;stroke-width:1;"/></g><text fill="#000000" font-family="sans-serif" font-size="14" lengthAdjust="spacing" textLength="454.0771" x="27" y="80.292">getAverageHoursPerMember ( teamId : String ) : ResponseEntity</text><g data-visibility-modifier="PUBLIC_METHOD"><ellipse cx="18" cy="93.2422" fill="#84BE84" rx="3" ry="3" style="stroke:#038048;stroke-width:1;"/></g><text fill="#000000" font-family="sans-serif" font-size="14" lengthAdjust="spacing" textLength="502.1064" x="27" y="96.5889">getAverageTasksPerStatusPerTeam ( teamId : String ) : ResponseEntity</text><g data-visibility-modifier="PUBLIC_METHOD"><ellipse cx="18" cy="109.5391" fill="#84BE84" rx="3" ry="3" style="stroke:#038048;stroke-width:1;"/></g><text fill="#000000" font-family="sans-serif" font-size="14" lengthAdjust="spacing" textLength="530.6055" x="27" y="112.8857">getCompletedTasksByMemberPerSprint ( teamId : String ) : ResponseEntity</text><g data-visibility-modifier="PUBLIC_METHOD"><ellipse cx="18" cy="125.8359" fill="#84BE84" rx="3" ry="3" style="stroke:#038048;stroke-width:1;"/></g><text fill="#000000" font-family="sans-serif" font-size="14" lengthAdjust="spacing" textLength="466.6143" x="27" y="129.1826">getLateTasks ( teamId : String , sprintId : String ) : ResponseEntity</text><g data-visibility-modifier="PUBLIC_METHOD"><ellipse cx="18" cy="142.1328" fill="#84BE84" rx="3" ry="3" style="stroke:#038048;stroke-width:1;"/></g><text fill="#000000" font-family="sans-serif" font-size="14" lengthAdjust="spacing" textLength="362.0176" x="27" y="145.4795">getLateTasksAll ( teamId : String ) : ResponseEntity</text><g data-visibility-modifier="PUBLIC_METHOD"><ellipse cx="18" cy="158.4297" fill="#84BE84" rx="3" ry="3" style="stroke:#038048;stroke-width:1;"/></g><text fill="#000000" font-family="sans-serif" font-size="14" lengthAdjust="spacing" textLength="539.1641" x="27" y="161.7764">getMemberStatusBreak ( teamId : String , sprintId : String ) : ResponseEntity</text><g data-visibility-modifier="PUBLIC_METHOD"><ellipse cx="18" cy="174.7266" fill="#84BE84" rx="3" ry="3" style="stroke:#038048;stroke-width:1;"/></g><text fill="#000000" font-family="sans-serif" font-size="14" lengthAdjust="spacing" textLength="545.4736" x="27" y="178.0732">getNumCompletedTasks ( teamId : String , sprintId : String ) : ResponseEntity</text><g data-visibility-modifier="PUBLIC_METHOD"><ellipse cx="18" cy="191.0234" fill="#84BE84" rx="3" ry="3" style="stroke:#038048;stroke-width:1;"/></g><text fill="#000000" font-family="sans-serif" font-size="14" lengthAdjust="spacing" textLength="440.877" x="27" y="194.3701">getNumCompletedTasksAll ( teamId : String ) : ResponseEntity</text><g data-visibility-modifier="PUBLIC_METHOD"><ellipse cx="18" cy="207.3203" fill="#84BE84" rx="3" ry="3" style="stroke:#038048;stroke-width:1;"/></g><text fill="#000000" font-family="sans-serif" font-size="14" lengthAdjust="spacing" textLength="525.5811" x="27" y="210.667">getNumPendingTasks ( teamId : String , sprintId : String ) : ResponseEntity</text><g data-visibility-modifier="PUBLIC_METHOD"><ellipse cx="18" cy="223.6172" fill="#84BE84" rx="3" ry="3" style="stroke:#038048;stroke-width:1;"/></g><text fill="#000000" font-family="sans-serif" font-size="14" lengthAdjust="spacing" textLength="420.9844" x="27" y="226.9639">getNumPendingTasksAll ( teamId : String ) : ResponseEntity</text><g data-visibility-modifier="PUBLIC_METHOD"><ellipse cx="18" cy="239.9141" fill="#84BE84" rx="3" ry="3" style="stroke:#038048;stroke-width:1;"/></g><text fill="#000000" font-family="sans-serif" font-size="14" lengthAdjust="spacing" textLength="469.1162" x="27" y="243.2607">getNumTasks ( teamId : String , sprintId : String ) : ResponseEntity</text><g data-visibility-modifier="PUBLIC_METHOD"><ellipse cx="18" cy="256.2109" fill="#84BE84" rx="3" ry="3" style="stroke:#038048;stroke-width:1;"/></g><text fill="#000000" font-family="sans-serif" font-size="14" lengthAdjust="spacing" textLength="364.5195" x="27" y="259.5576">getNumTasksAll ( teamId : String ) : ResponseEntity</text><g data-visibility-modifier="PUBLIC_METHOD"><ellipse cx="18" cy="272.5078" fill="#84BE84" rx="3" ry="3" style="stroke:#038048;stroke-width:1;"/></g><text fill="#000000" font-family="sans-serif" font-size="14" lengthAdjust="spacing" textLength="473.5938" x="27" y="275.8545">getWorkHours ( teamId : String , sprintId : String ) : ResponseEntity</text><g data-visibility-modifier="PUBLIC_METHOD"><ellipse cx="18" cy="288.8047" fill="#84BE84" rx="3" ry="3" style="stroke:#038048;stroke-width:1;"/></g><text fill="#000000" font-family="sans-serif" font-size="14" lengthAdjust="spacing" textLength="491.709" x="27" y="292.1514">getWorkHoursByMemberPerSprint ( teamId : String ) : ResponseEntity</text></g><?plantuml-src jPFDQW91383F-XHphAWlq9kAO46BLC7pk9DkXvsV9SaA8hwxsTaY5ZnDrpc58Vdo9P32QIArOsqiiIre4GDZT0vGNOQ3oxS5PwvgIlU47U395g3U7uf-_oJV0_z4AHYNmBCJe2vX5HkaBU06_56eRuf1-m-J06X3gKOIVW7LCH0i0ri-FmVjDLKjIFfoqmPx0UNm5j7N3XXC8ixFdLbBhWN0ESYrvixlIV54KUBc0MVEvGXrCtMhcYFegY-npyR_tT_Bm9cJ2sSBmKXkttgFs7ovlgt-etE8MANxxCld3ioygkimlHi0?></g></svg>